<?xml version="1.0" standalone="no"?>
<!DOCTYPE svg PUBLIC "-//W3C//DTD SVG 20010904//EN"
 "http://www.w3.org/TR/2001/REC-SVG-20010904/DTD/svg10.dtd">
<svg version="1.0" xmlns="http://www.w3.org/2000/svg"
 width="512.000000pt" height="512.000000pt" viewBox="0 0 512.000000 512.000000"
 preserveAspectRatio="xMidYMid meet">
<metadata>
Created by potrace 1.11, written by Peter Selinger 2001-2013
</metadata>
<g transform="translate(0.000000,512.000000) scale(0.100000,-0.100000)"
fill="#000000" stroke="none">
<path d="M1847 4823 c-29 -57 -55 -158 -71 -278 -3 -16 -5 -73 -6 -125 l-2
-95 -19 65 c-25 86 -31 134 -34 262 -1 59 -4 111 -8 114 -11 11 -75 -135 -96
-216 -19 -77 -29 -151 -31 -230 -1 -45 -1 -45 -15 -19 -30 56 -67 204 -68 277
0 39 -4 72 -8 72 -9 0 -65 -133 -88 -210 -31 -105 -41 -163 -42 -252 0 -32 -2
-58 -4 -58 -10 0 -44 93 -50 135 -10 78 -12 81 -37 59 -60 -54 -119 -186 -122
-275 0 -27 -5 -47 -11 -46 -5 2 -23 25 -40 52 -21 33 -30 61 -30 91 0 24 -3
44 -7 44 -15 0 -59 -70 -79 -126 -20 -58 -26 -140 -13 -197 4 -20 2 -32 -7
-38 -19 -12 -66 -11 -74 1 -12 20 -22 9 -43 -52 -30 -85 -33 -101 -33 -189 -1
-74 -2 -78 -36 -110 -45 -44 -63 -79 -63 -124 0 -20 -5 -45 -11 -57 -14 -26 4
-70 46 -116 76 -84 36 -137 -54 -71 -23 16 -50 29 -59 27 -43 -8 -27 -124 26
-181 34 -36 61 -50 170 -88 114 -41 211 -89 223 -110 14 -27 -34 -38 -190 -44
-143 -5 -221 -22 -264 -55 -25 -20 -31 -36 -43 -120 -3 -24 -8 -48 -11 -53
-10 -17 20 -38 47 -32 26 6 28 3 34 -36 4 -28 16 -50 36 -67 17 -15 30 -34 30
-44 0 -24 46 -56 89 -63 20 -3 43 -10 51 -15 48 -30 92 -50 110 -50 12 0 40
-15 63 -34 61 -49 103 -67 173 -76 54 -7 72 -15 139 -65 70 -52 98 -67 160
-89 20 -7 20 -7 -1 -24 -30 -25 -137 -152 -214 -257 -86 -116 -132 -190 -210
-345 -158 -312 -310 -517 -500 -675 -101 -84 -135 -154 -81 -168 31 -8 125 23
181 60 30 20 86 68 123 106 49 50 65 63 58 44 -25 -66 -53 -118 -86 -161 -43
-57 -44 -81 -4 -105 62 -38 153 -6 241 86 69 71 81 89 148 214 35 65 59 101
56 84 -8 -41 -15 -85 -21 -126 -6 -44 -14 -88 -21 -119 -3 -14 -8 -36 -10 -50
-9 -47 -37 -125 -56 -152 -17 -24 -17 -28 -2 -43 29 -29 95 4 179 89 78 79
131 181 161 311 7 29 7 29 17 -15 14 -69 14 -69 39 -63 53 14 181 170 225 273
10 25 11 24 18 -12 4 -21 10 -38 14 -38 14 0 103 68 124 95 12 15 29 37 38 49
14 17 20 19 41 9 28 -13 188 -15 207 -3 9 5 -4 15 -38 31 -28 12 -51 25 -51
28 0 3 18 19 40 34 38 27 39 27 50 7 6 -11 8 -20 4 -20 -3 0 -2 -6 3 -12 6 -7
16 -31 23 -53 l13 -40 13 54 c15 70 11 132 -15 206 -21 60 -28 149 -12 159 22
14 195 -271 221 -366 14 -51 27 -48 36 9 27 171 -50 304 -231 396 -27 14 -56
35 -63 47 -13 22 -13 22 57 18 39 -1 71 0 71 5 0 4 -12 7 -27 7 -37 0 -73 10
-73 20 0 9 24 18 66 26 71 13 162 83 188 145 10 24 27 42 49 52 50 24 136 84
179 124 l36 35 344 -5 c188 -2 353 -7 365 -10 25 -6 253 -20 333 -20 242 -1
475 53 633 146 98 57 222 182 279 281 49 85 52 116 11 116 -32 0 -53 -12 -100
-56 -65 -63 -175 -101 -312 -108 -68 -4 -68 -1 -10 54 48 46 117 157 127 207
16 71 26 93 66 146 38 49 46 77 22 77 -23 0 -122 -56 -193 -110 -58 -43 -69
-48 -74 -33 -9 26 8 75 33 96 31 26 9 36 -58 25 -54 -8 -116 -39 -143 -72 -7
-9 -24 -16 -37 -16 -44 0 -27 62 24 89 38 20 24 31 -41 31 -80 0 -143 -21
-195 -66 l-41 -35 -9 33 c-5 20 -5 38 0 45 14 18 -4 23 -50 12 -61 -13 -138
-58 -185 -106 -23 -24 -48 -43 -55 -43 -14 0 -35 47 -26 61 11 18 -23 9 -62
-17 -22 -14 -51 -42 -64 -61 -30 -44 -67 -60 -144 -65 l-60 -3 -1 41 c-3 114
-118 212 -232 197 -72 -9 -165 -71 -211 -141 -26 -40 -64 -52 -154 -51 -98 2
-134 -3 -290 -42 -64 -16 -119 -29 -123 -29 -7 0 -25 45 -32 80 -15 75 -4 292
21 425 3 17 8 44 11 60 3 17 15 77 26 135 20 106 22 120 35 290 24 323 29 432
29 695 0 313 -3 359 -26 471 -21 97 -52 169 -78 184 -63 33 -97 -24 -103 -177
-2 -29 -5 -53 -9 -53 -9 0 -40 145 -46 215 -3 33 -7 62 -8 63 -2 2 -10 -9 -18
-25z"/>
<path d="M2663 1675 c-103 -31 -186 -75 -278 -149 -44 -36 -66 -66 -42 -58 5
1 6 -2 2 -7 -11 -19 164 -115 265 -145 30 -9 89 -19 130 -22 l75 -6 -30 26
c-77 65 -297 156 -379 156 -37 0 -30 7 14 15 80 13 295 142 329 197 14 22 14
22 -86 -7z"/>
</g>
</svg>
